<?xml version="1.0" encoding="utf-8"?>
<!DOCTYPE svg PUBLIC "-//W3C//DTD SVG 1.1//EN" "http://www.w3.org/Graphics/SVG/1.1/DTD/svg11.dtd">
<svg version="1.1" xmlns="http://www.w3.org/2000/svg" xmlns:xlink="http://www.w3.org/1999/xlink" x="0px" y="0px" viewBox="0 0 1000 1000" enable-background="new 0 0 1000 1000" xml:space="preserve">
<g><path fill="#FFF" d="M452.6,678.4c0,0,225.1,178,422.9-253.3C875.5,425.1,458.1,346.6,452.6,678.4z M486.3,899c-68.2-92.3-125.1-245.1-15.7-455.5C661.1,77.3,418.7,10,418.7,10s205.7,91.6,11,402.2C487.6,151,124.5,73.9,124.5,73.9c6.9,393.7,201.4,405.8,266.1,398.9c-119.6,188.8-84.8,336.4-34.1,427.6c-84,12.8-146.6,47.4-154.3,89.6h448.7C642.8,946.1,575.5,910.4,486.3,899z"/></g>
</svg>